HIERARCHY
ROOT hip
{
	OFFSET 0.000000 0.000000 0.000000
	CHANNELS 6 Xposition Yposition Zposition Zrotation Yrotation Xrotation 
	JOINT lhipjoint
	{
		OFFSET 0.000000 0.000000 0.000000
		CHANNELS 3 Zrotation Yrotation Xrotation
		JOINT lfemur
		{
			OFFSET 1.363060 -1.794630 0.839290
			CHANNELS 3 Zrotation Yrotation Xrotation
			JOINT ltibia
			{
				OFFSET 2.448110 -6.726130 0.000000
				CHANNELS 3 Zrotation Yrotation Xrotation
				JOINT lfoot
				{
					OFFSET 2.562200 -7.039590 0.000000
					CHANNELS 3 Zrotation Yrotation Xrotation
					JOINT ltoes
					{
						OFFSET 0.157640 -0.433110 2.322550
						CHANNELS 3 Zrotation Yrotation Xrotation
						End Site
						{
							OFFSET 0.000000 0.000000 0.000000
						}
					}
				}
			}
		}
	}
	JOINT rhipjoint
	{
		OFFSET 0.000000 0.000000 0.000000
		CHANNELS 3 Zrotation Yrotation Xrotation
		JOINT rfemur
		{
			OFFSET -1.305520 -1.794630 0.839290
			CHANNELS 3 Zrotation Yrotation Xrotation
			JOINT rtibia
			{
				OFFSET -2.542530 -6.985550 0.000000
				CHANNELS 3 Zrotation Yrotation Xrotation
				JOINT rfoot
				{
					OFFSET -2.568260 -7.056230 0.000000
					CHANNELS 3 Zrotation Yrotation Xrotation
					JOINT rtoes
					{
						OFFSET -0.164730 -0.452590 2.363150
						CHANNELS 3 Zrotation Yrotation Xrotation
						End Site
						{
							OFFSET 0.000000 0.000000 0.000000
						}
					}
				}
			}
		}
	}
	JOINT lowerback
	{
		OFFSET 0.000000 0.000000 0.000000
		CHANNELS 3 Zrotation Yrotation Xrotation
		JOINT upperback
		{
			OFFSET 0.028270 2.035590 -0.193380
			CHANNELS 3 Zrotation Yrotation Xrotation
			JOINT thorax
			{
				OFFSET 0.056720 2.048850 -0.042750
				CHANNELS 3 Zrotation Yrotation Xrotation
				JOINT lowerneck
				{
					OFFSET 0.000000 0.000000 0.000000
					CHANNELS 3 Zrotation Yrotation Xrotation
					JOINT upperneck
					{
						OFFSET -0.054170 1.746240 0.172020
						CHANNELS 3 Zrotation Yrotation Xrotation
						JOINT head
						{
							OFFSET 0.104070 1.761360 -0.123970
							CHANNELS 3 Zrotation Yrotation Xrotation
							End Site
							{
								OFFSET 0.000000 0.000000 0.000000
							}
						}
					}
				}
				JOINT lclavicle
				{
					OFFSET 0.000000 0.000000 0.000000
					CHANNELS 3 Zrotation Yrotation Xrotation
					JOINT lhumerus
					{
						OFFSET 3.362410 1.200890 -0.311210
						CHANNELS 3 Zrotation Yrotation Xrotation
						JOINT lradius
						{
							OFFSET 4.983000 -0.000000 -0.000000
							CHANNELS 3 Zrotation Yrotation Xrotation
							JOINT lwrist
							{
								OFFSET 3.483560 -0.000000 -0.000000
								CHANNELS 3 Zrotation Yrotation Xrotation
								JOINT lhand
								{
									OFFSET 0.000000 0.000000 0.000000
									CHANNELS 3 Zrotation Yrotation Xrotation
									JOINT lfingers
									{
										OFFSET 0.715260 -0.000000 -0.000000
										CHANNELS 3 Zrotation Yrotation Xrotation
										End Site
										{
											OFFSET 0.000000 0.000000 0.000000
										}
									}
								}
								JOINT lthumb
								{
									OFFSET 0.000000 0.000000 0.000000
									CHANNELS 3 Zrotation Yrotation Xrotation
									End Site
									{
										OFFSET 0.000000 0.000000 0.000000
									}
								}
							}
						}
					}
				}
				JOINT rclavicle
				{
					OFFSET 0.000000 0.000000 0.000000
					CHANNELS 3 Zrotation Yrotation Xrotation
					JOINT rhumerus
					{
						OFFSET -3.136600 1.374050 -0.404650
						CHANNELS 3 Zrotation Yrotation Xrotation
						JOINT rradius
						{
							OFFSET -5.241900 -0.000000 -0.000000
							CHANNELS 3 Zrotation Yrotation Xrotation
							JOINT rwrist
							{
								OFFSET -3.444170 -0.000000 -0.000000
								CHANNELS 3 Zrotation Yrotation Xrotation
								JOINT rhand
								{
									OFFSET 0.000000 0.000000 0.000000
									CHANNELS 3 Zrotation Yrotation Xrotation
									JOINT rfingers
									{
										OFFSET -0.622530 -0.000000 -0.000000
										CHANNELS 3 Zrotation Yrotation Xrotation
										End Site
										{
											OFFSET 0.000000 0.000000 0.000000
										}
									}
								}
								JOINT rthumb
								{
									OFFSET 0.000000 0.000000 0.000000
									CHANNELS 3 Zrotation Yrotation Xrotation
									End Site
									{
										OFFSET 0.000000 0.000000 0.000000
									}
								}
							}
						}
					}
				}
			}
		}
	}
}
MOTION
Frames: 12
Frame Time: 0.008333
-0.631830 19.658780 3.527557 -178.229787 0.225315 -174.003976 7.304723 6.222476 1.643455 -24.281592 7.384742 -20.953601 1.013258 8.938688 30.929155 5.426621 -12.968941 13.518719 0.088000 1.912800 5.264700 -8.648411 -7.031784 1.231934 26.508446 -4.131967 -22.772213 -2.566586 -10.022488 33.510956 -3.234528 8.761840 2.939681 -0.890000 6.013200 -16.822800 -0.530106 1.093312 -11.768022 0.560946 1.492915 -0.181871 -1.104262 1.004749 15.403626 -0.105158 -0.809751 -9.900077 3.407345 -2.902348 19.585730 -1.252500 -1.142300 8.187800 5.970392 1.599764 3.154472 -82.068785 8.573328 -1.371768 -3.826311 -12.941453 -0.426744 -1.037668 0.043675 61.023049 0.825881 -6.968118 -0.144900 -7.125000 0.000000 0.000000 -18.548500 23.898100 9.955700 -2.841173 -0.063245 3.661876 81.530921 -2.438722 19.410076 -23.235454 43.490094 -7.549319 -0.544453 -1.892090 19.417334 -11.623794 13.387624 -3.159100 7.125000 0.000000 0.000000 10.684800 -14.469400 7.815700 
-0.616745 19.663501 3.531970 -178.355520 0.788079 -173.897439 7.313426 6.220814 1.633442 -24.470530 7.198284 -20.845541 0.998575 8.899074 30.758245 5.230237 -12.126420 13.283886 0.079200 1.815700 4.996600 -8.657386 -7.002245 1.260492 26.366494 -3.542215 -22.830235 -2.557912 -10.051722 33.542084 -3.268728 8.914396 3.049985 -0.809300 5.740900 -16.034500 -0.390446 1.205530 -11.736173 0.551928 1.628296 -0.180759 -1.138289 1.082376 15.387390 -0.095475 -0.752837 -9.940464 3.376032 -2.782443 19.467986 -1.267900 -1.081900 8.146900 5.885420 1.601004 3.161918 -81.859562 9.277052 4.645224 -3.072774 -14.970603 -0.482833 -1.043385 -0.031629 55.678384 1.713948 -7.421043 -0.259500 -7.125000 0.000000 0.000000 -17.842100 23.462400 9.726900 -2.714294 -0.061584 3.669141 81.064940 -2.385006 20.120144 -24.653035 44.488446 -8.144983 -0.553619 -1.937971 18.779756 -11.798977 13.278819 -3.191600 7.125000 0.000000 0.000000 10.578100 -14.515100 7.724300 
-0.601660 19.667298 3.536177 -178.466769 1.333494 -173.812397 7.319651 6.221324 1.626367 -24.627459 7.001498 -20.725005 0.984421 8.860552 30.592987 5.035127 -11.328128 13.056974 0.072500 1.736600 4.778300 -8.661605 -6.978814 1.280260 26.241448 -3.213026 -22.956604 -2.552824 -10.082911 33.597642 -3.343738 9.278125 3.364479 -0.714800 5.403100 -15.061800 -0.228949 1.319239 -11.710297 0.543894 1.763290 -0.176104 -1.164878 1.162488 15.403181 -0.120488 -0.694958 -10.010123 3.360713 -2.669053 19.391901 -1.260300 -1.029400 8.139500 5.790705 1.613352 3.161146 -81.620968 9.878273 9.820389 -2.245042 -16.772820 -0.543415 -1.031507 -0.111648 51.325059 2.822603 -7.901074 -0.413900 -7.125000 0.000000 0.000000 -16.999600 22.996700 9.415700 -2.587835 -0.070385 3.676963 80.574972 -2.318557 20.755417 -26.088541 45.484587 -8.791457 -0.577887 -1.984393 18.190428 -12.197252 13.303828 -3.311100 7.125000 0.000000 0.000000 10.329000 -14.402900 7.561300 
-0.586780 19.670787 3.540282 -178.555181 1.867850 -173.777149 7.324509 6.226554 1.621621 -24.749386 6.814431 -20.559063 0.975262 8.821149 30.435849 4.826062 -10.508252 12.807533 0.061900 1.605800 4.417500 -8.664839 -6.959883 1.296855 26.130623 -2.931457 -23.032643 -2.551415 -10.110286 33.660568 -3.414872 9.634768 3.674736 -0.647800 5.148700 -14.333200 -0.035906 1.435130 -11.624334 0.536062 1.897306 -0.171841 -1.209557 1.247712 15.387614 -0.131302 -0.635806 -10.055775 3.348561 -2.559877 19.309945 -1.253600 -0.978200 8.127500 5.704914 1.620761 3.155225 -81.374685 10.347186 14.158461 -1.450005 -18.254707 -0.598629 -0.996309 -0.196210 47.889261 4.215840 -8.286046 -0.612500 -7.125000 0.000000 0.000000 -15.992100 22.611600 8.958500 -2.467604 -0.071845 3.685364 80.084031 -2.258195 21.314096 -27.586500 46.486173 -9.485402 -0.595082 -2.022143 17.687038 -12.434706 13.274915 -3.374500 7.125000 0.000000 0.000000 10.184600 -14.368600 7.459600 
-0.571798 19.673249 3.544695 -178.623063 2.360700 -173.773002 7.329472 6.232663 1.618619 -24.836437 6.600131 -20.371181 0.972241 8.789496 30.304972 4.615726 -9.714297 12.517141 0.050500 1.450400 3.989000 -8.669988 -6.943180 1.312671 26.044418 -2.614502 -23.037830 -2.548535 -10.127380 33.703785 -3.470438 9.924243 3.924929 -0.592900 4.929800 -13.708300 0.186944 1.544980 -11.506840 0.529048 2.018320 -0.169184 -1.279849 1.331750 15.336881 -0.126383 -0.566959 -10.048531 3.349485 -2.446186 19.219508 -1.240100 -0.924500 8.093700 5.618278 1.620944 3.148992 -81.079693 10.792596 18.254136 -0.615248 -19.619417 -0.658931 -0.936293 -0.276896 44.750525 5.801511 -8.490117 -0.835500 -7.125000 0.000000 0.000000 -14.879900 22.379500 8.372300 -2.355925 -0.066921 3.697664 79.598288 -2.209117 21.815051 -29.080462 47.457062 -10.204967 -0.616606 -2.053517 17.212871 -12.647652 13.300575 -3.440500 7.125000 0.000000 0.000000 10.060200 -14.286600 7.383300 
-0.557739 19.676431 3.548491 -178.695103 2.847646 -173.781783 7.331721 6.238914 1.621478 -24.904128 6.375463 -20.178533 0.968848 8.759882 30.191545 4.427052 -9.031776 12.287268 0.050900 1.456100 4.004700 -8.675451 -6.930527 1.327688 25.956339 -2.407253 -23.065435 -2.543353 -10.137433 33.732670 -3.541169 10.299571 4.229537 -0.530400 4.667100 -12.961400 0.406256 1.647195 -11.376307 0.525663 2.124184 -0.174436 -1.310050 1.402510 15.231538 -0.177827 -0.491038 -9.997723 3.342700 -2.330068 19.157994 -1.217600 -0.879300 8.076800 5.548203 1.604028 3.138670 -80.833748 11.186342 21.718115 0.128116 -20.735997 -0.708425 -0.870609 -0.353843 42.192636 7.495872 -8.809332 -1.099800 -7.125000 0.000000 0.000000 -13.687600 22.029000 7.773400 -2.256813 -0.049996 3.706775 79.056669 -2.197448 22.278236 -30.588043 48.394403 -10.956148 -0.640190 -2.071035 16.830749 -12.779842 13.348884 -3.485200 7.125000 0.000000 0.000000 9.992300 -14.202200 7.350100 
-0.542859 19.677560 3.553315 -178.765593 3.324256 -173.813067 7.333318 6.246475 1.623475 -24.959327 6.150944 -19.975729 0.971689 8.739177 30.109088 4.240513 -8.377472 12.040487 0.050200 1.445800 3.976300 -8.683030 -6.919025 1.338720 25.880225 -2.176904 -23.034326 -2.535349 -10.136352 33.733288 -3.596189 10.599486 4.449471 -0.491900 4.496900 -12.479100 0.629298 1.743229 -11.231028 0.523350 2.225759 -0.174579 -1.352172 1.471396 15.211314 0.014233 -2.088769 -10.017934 3.016149 -1.750959 19.156551 -1.210800 0.417400 8.072100 5.473666 1.618071 3.096682 -80.555319 11.407503 24.756720 0.809005 -21.678630 -0.755265 -0.805396 -0.415157 40.194146 9.040496 -9.100566 -1.358300 -7.125000 0.000000 0.000000 -12.604800 21.696500 7.224700 -2.158424 -0.046654 3.686464 78.525541 -2.083526 22.641861 -32.079058 49.286875 -11.726592 -0.668844 -2.074326 16.576800 -12.828539 13.479819 -3.520500 7.125000 0.000000 0.000000 9.983400 -14.054900 7.375000 
-0.528697 19.679407 3.558240 -178.821510 3.772028 -173.856252 7.333031 6.253790 1.628743 -24.988956 5.919295 -19.780852 0.978016 8.724742 30.044609 4.055799 -7.744970 11.771205 0.049100 1.429700 3.931800 -8.692250 -6.910605 1.350106 25.824224 -1.976207 -22.986155 -2.525238 -10.127629 33.718068 -3.647537 10.891582 4.672477 -0.456300 4.333500 -12.016800 0.866876 1.824381 -11.068829 0.524358 2.300376 -0.181523 -1.377541 1.525323 15.090022 -0.025350 -2.013046 -9.960200 2.979643 -1.628884 19.131042 -1.215300 0.469300 8.081700 5.423034 1.602349 3.082966 -80.341564 11.638542 27.193537 1.438602 -22.501872 -0.800084 -0.739145 -0.476553 39.099838 10.782824 -9.486159 -1.678900 -7.125000 0.000000 0.000000 -11.388700 21.262200 6.612800 -2.062859 -0.025330 3.691259 77.934129 -2.023336 23.006547 -33.598237 50.156042 -12.535775 -0.699983 -2.070480 16.367796 -12.850027 13.596492 -3.542700 7.125000 0.000000 0.000000 9.994800 -13.931100 7.410400 
-0.514331 19.681767 3.563884 -178.876615 4.200946 -173.910610 7.332709 6.262320 1.633748 -25.013714 5.725340 -19.602466 0.988901 8.717147 30.003116 3.884946 -7.173540 11.463257 0.042800 1.335400 3.672100 -8.700847 -6.903174 1.360319 25.773191 -1.796891 -22.929063 -2.512799 -10.113424 33.690349 -3.697250 11.189037 4.922006 -0.412100 4.120600 -11.416300 1.115695 1.903759 -10.900705 0.524577 2.373224 -0.187731 -1.418974 1.581175 14.966744 -0.050351 -1.952523 -9.885662 2.927131 -1.526768 19.109040 -1.230800 0.512600 8.083700 5.379694 1.590809 3.069444 -80.127451 11.749681 29.231399 1.938237 -23.106099 -0.834046 -0.686232 -0.519363 38.423866 12.097058 -9.779581 -1.938200 -7.125000 0.000000 0.000000 -10.476300 20.920300 6.146700 -1.973821 -0.006398 3.696891 77.327160 -1.894562 23.344795 -35.066170 50.961781 -13.343734 -0.736716 -2.061068 16.171118 -12.867727 13.762244 -3.571700 7.125000 0.000000 0.000000 10.013100 -13.762500 7.460700 
-0.500066 19.683204 3.570042 -178.936814 4.641402 -173.976082 7.329334 6.270237 1.638972 -25.033833 5.486896 -19.401379 1.002651 8.714918 29.977996 3.711572 -6.608376 11.122034 0.039800 1.287300 3.539700 -8.712408 -6.897491 1.365936 25.729745 -1.661036 -22.869478 -2.499872 -10.095664 33.655038 -3.743875 11.477061 5.164566 -0.381200 3.964900 -10.978000 1.340459 1.970043 -10.741494 0.530265 2.431000 -0.190592 -1.377588 1.619194 14.870619 -0.162736 -1.874688 -9.825232 2.882626 -1.388323 19.095048 -1.221500 0.565200 8.091000 5.347277 1.582063 3.060202 -80.021724 11.746483 30.777440 2.272454 -23.504444 -0.846283 -0.640167 -0.563178 37.922149 13.346925 -10.215190 -2.234100 -7.125000 0.000000 0.000000 -9.607000 20.435700 5.728000 -1.878024 0.001503 3.699976 76.602108 -1.721322 23.753361 -36.610394 51.759772 -14.212983 -0.759343 -2.049655 15.808684 -12.814987 13.754960 -3.543000 7.125000 0.000000 0.000000 10.074200 -13.781100 7.503600 
-0.485802 19.686795 3.577328 -178.978368 5.051376 -174.069403 7.324259 6.282511 1.644065 -25.024597 5.346936 -19.211467 1.019238 8.713257 29.968428 3.564963 -6.140230 10.817954 0.037500 1.249600 3.435900 -8.721503 -6.895341 1.366468 25.708394 -1.602855 -22.798998 -2.488848 -10.075718 33.622916 -3.794825 11.795681 5.406260 -0.340000 3.746700 -10.365200 1.602434 2.028171 -10.554971 0.535477 2.478020 -0.189233 -1.383933 1.659604 14.795599 -0.214147 -1.796503 -9.791330 2.824903 -1.256101 19.083979 -1.236800 0.620200 8.105900 5.311884 1.585304 3.048285 -79.856700 11.682195 32.174630 2.559885 -23.814146 -0.850662 -0.598117 -0.611127 37.374021 14.571487 -10.824842 -2.589100 -7.125000 0.000000 0.000000 -8.757100 19.771700 5.340800 -1.776520 0.006315 3.702210 75.867870 -1.465917 24.147227 -38.187303 52.537343 -15.121646 -0.780909 -2.037228 15.243567 -12.688258 13.754399 -3.491800 7.125000 0.000000 0.000000 10.189200 -13.802300 7.587500 
-0.471230 19.689771 3.585229 -179.026912 5.449604 -174.149062 7.317153 6.293230 1.649981 -25.027463 5.226301 -19.051539 1.036864 8.714827 29.962416 3.412005 -5.659544 10.482119 0.029200 1.102400 3.030500 -8.733819 -6.892185 1.371480 25.696719 -1.490144 -22.737244 -2.480156 -10.061711 33.601681 -3.828451 12.018104 5.596398 -0.310500 3.582500 -9.905000 1.841966 2.070225 -10.373407 0.544701 2.502647 -0.195302 -1.349926 1.680222 14.685268 -0.306206 -1.719786 -9.744945 2.765741 -1.111015 19.092230 -1.245200 0.682300 8.141500 5.294595 1.574771 3.035390 -79.781462 11.598470 33.259787 2.775312 -24.046566 -0.851594 -0.561563 -0.649820 36.957782 15.579707 -11.398893 -2.921800 -7.125000 0.000000 0.000000 -8.065300 19.140400 5.024800 -1.688061 0.018779 3.698027 75.120072 -1.178365 24.519535 -39.781797 53.274852 -16.058867 -0.801656 -2.018847 14.630315 -12.494573 13.743078 -3.416900 7.125000 0.000000 0.000000 10.350700 -13.847400 7.701800 
